<svg width="36" height="27" viewBox="0 0 36 27" fill="none" xmlns="http://www.w3.org/2000/svg">
<path d="M1.90857 0.00908317C1.31496 0.104061 0.783395 0.430959 0.430809 0.917863C0.078223 1.40477 -0.0664999 2.01179 0.0284776 2.6054C0.123455 3.19901 0.450353 3.73058 0.937258 4.08317C1.42416 4.43575 2.03119 4.58048 2.6248 4.4855H9.33942L9.7423 5.6046L11.5776 11.2001L13.413 16.7956C13.592 17.3776 14.353 17.9147 14.9349 17.9147H30.6024C31.2291 17.9147 31.9453 17.3776 32.1244 16.7956L35.7503 5.6046C35.9293 5.02267 35.6607 4.4855 35.034 4.4855H15.1588L13.4577 1.26248C13.2765 0.892545 12.9968 0.579784 12.6493 0.358635C12.3018 0.137487 11.8999 0.0165297 11.4881 0.00908317L2.53527 0.00908317C2.40125 -0.00302772 2.26641 -0.00302772 2.13239 0.00908317C2.04294 0.00370663 1.95326 0.00370663 1.86381 0.00908317L1.90857 0.00908317ZM16.054 22.3912C14.8006 22.3912 13.8158 23.376 13.8158 24.6294C13.8158 25.8828 14.8006 26.8676 16.054 26.8676C17.3074 26.8676 18.2922 25.8828 18.2922 24.6294C18.2922 23.376 17.3074 22.3912 16.054 22.3912ZM29.4833 22.3912C28.2299 22.3912 27.2451 23.376 27.2451 24.6294C27.2451 25.8828 28.2299 26.8676 29.4833 26.8676C30.7367 26.8676 31.7215 25.8828 31.7215 24.6294C31.7215 23.376 30.7367 22.3912 29.4833 22.3912Z" fill="white"/>
</svg>
